<svg width="225" height="67" viewBox="0 0 225 67" fill="none" xmlns="http://www.w3.org/2000/svg">
<path d="M74.9492 32.0306V40.3167H88.312V48.0193H74.9492V57.0056H90.0626V65H64.9708V24.0362H90.0626V32.0306H74.9492ZM84.0522 15.8085L69.9892 21.7021V14.8165L84.0522 8.04752V15.8085ZM111.362 65.4085C108.367 65.4085 105.683 64.9222 103.31 63.9496C100.937 62.9771 99.0304 61.5377 97.591 59.6315C96.1906 57.7253 95.4514 55.4301 95.3736 52.7459H105.994C106.149 54.2631 106.675 55.4301 107.569 56.2471C108.464 57.0251 109.631 57.4141 111.071 57.4141C112.549 57.4141 113.716 57.0835 114.572 56.4221C115.428 55.7219 115.856 54.7688 115.856 53.5628C115.856 52.5514 115.505 51.715 114.805 51.0536C114.144 50.3923 113.307 49.8477 112.296 49.4198C111.323 48.9918 109.923 48.5056 108.095 47.9609C105.449 47.144 103.29 46.3271 101.617 45.5101C99.9446 44.6932 98.5052 43.4872 97.2993 41.8922C96.0933 40.2973 95.4903 38.216 95.4903 35.6485C95.4903 31.8361 96.8713 28.8601 99.6334 26.7205C102.395 24.542 105.994 23.4527 110.429 23.4527C114.941 23.4527 118.579 24.542 121.341 26.7205C124.103 28.8601 125.581 31.8555 125.776 35.7068H114.98C114.902 34.3842 114.416 33.3533 113.521 32.6141C112.627 31.8361 111.479 31.4471 110.079 31.4471C108.873 31.4471 107.9 31.7777 107.161 32.4391C106.422 33.0615 106.052 33.9757 106.052 35.1816C106.052 36.5043 106.675 37.5352 107.92 38.2743C109.164 39.0135 111.109 39.811 113.755 40.6668C116.4 41.5616 118.54 42.4174 120.174 43.2344C121.846 44.0513 123.286 45.2378 124.492 46.7939C125.698 48.35 126.301 50.3534 126.301 52.8042C126.301 55.1384 125.698 57.2585 124.492 59.1647C123.325 61.0709 121.613 62.5881 119.357 63.7162C117.1 64.8444 114.436 65.4085 111.362 65.4085ZM161.91 24.0362V32.0306H151.056V65H141.078V32.0306H130.224V24.0362H161.91ZM176.896 24.0362V65H166.918V24.0362H176.896ZM209.627 57.7642H194.339L191.888 65H181.443L196.264 24.0362H207.818L222.64 65H212.078L209.627 57.7642ZM207.06 50.0616L201.983 35.0649L196.965 50.0616H207.06Z" fill="#FDFDFD"/>
<path d="M15.2691 65.4314V34.4749H5.12745L3 28.049C9.68659 31.4418 10.6872 30.8499 15.2691 29.2575C9.61235 8.67785 11.3784 2.60794 15.2691 3.51846C19.1598 4.42899 21.3008 3.51846 21.3008 3.51846C18.3684 12.8947 19.1295 18.7056 21.3008 29.2575H39.3958C42.6787 18.8377 42.7999 13.1873 39.3958 3.51846C39.3958 3.51846 41.0477 4.42892 45.4275 3.51846C49.8072 2.608 49.1719 18.8369 45.4275 29.2575C47.1998 31.724 49.5 31.0882 51.0196 31.0882L58.3137 28.049L55.8824 34.4749H45.4275V65.4314H39.3958V34.4749H21.3008V65.4314H15.2691Z" fill="#FDFDFD" stroke="#FDFDFD" stroke-width="2.43137"/>
</svg>
