<svg width="4024" height="1262" viewBox="0 0 4024 1262" fill="none" xmlns="http://www.w3.org/2000/svg">
<path d="M3648.31 394.553L3648.31 475.993L3861 1240.99L3918.5 1240.99L3648.31 394.553Z" fill="#E1093D"/>
<path d="M3699 328L3680 337.5L3990 1241L4024 1241L3699 328Z" fill="#E1093D"/>
<path d="M3668 343L3648.5 352.5L3932 1241L3976 1241L3668 343Z" fill="#E1093D"/>
<path d="M3477.02 894.68L3477.02 871.709H3788.02L3788.02 894.68L3477.02 894.68Z" fill="#E1093D"/>
<path d="M3466 856.989L3466 833.989H3773L3773 856.989L3466 856.989Z" fill="#E1093D"/>
<path d="M3633.5 352.5L3271 1240.99H3379.5L3648.31 475.993V394.553L3633.5 352.5Z" fill="#E1093D"/>
<rect x="2963.02" y="310" width="63" height="932" fill="#E1093D"/>
<rect x="3041.02" y="310" width="96" height="932" fill="#E1093D"/>
<rect x="2431.02" y="351.31" width="28" height="890.69" fill="#E1093D"/>
<rect x="2348.02" y="399.673" width="69" height="842.326" fill="#E1093D"/>
<rect x="2473.02" y="399.673" width="69" height="842.326" fill="#E1093D"/>
<rect x="2829.02" y="310" width="41.3103" height="767" transform="rotate(90 2829.02 310)" fill="#E1093D"/>
<rect x="2829.02" y="362.394" width="37.28" height="767" transform="rotate(90 2829.02 362.394)" fill="#E1093D"/>
<path d="M1928.02 559.877C1928.02 510.456 1911.92 462.145 1881.75 421.053C1851.59 379.961 1808.72 347.933 1758.56 329.021C1708.4 310.108 1653.21 305.16 1599.96 314.801C1546.72 324.443 1497.8 348.241 1459.41 383.187C1421.03 418.133 1394.88 462.657 1384.29 511.128C1373.7 559.6 1379.13 609.841 1399.91 655.5C1420.69 701.159 1455.87 740.185 1501.01 767.642C1546.15 795.098 1599.22 809.753 1653.52 809.753L1654.02 741.743C1614.49 741.743 1575.35 731.139 1542.48 711.148C1509.61 691.157 1484 662.743 1468.87 629.499C1453.74 596.255 1449.78 559.675 1457.5 524.383C1465.21 489.092 1484.24 456.675 1512.19 431.231C1540.14 405.787 1575.76 388.46 1614.52 381.44C1653.29 374.42 1693.48 378.023 1730 391.793C1766.52 405.563 1797.73 428.882 1819.69 458.8C1841.65 488.719 1853.38 523.894 1853.38 559.877H1928.02Z" fill="#E1093D"/>
<path d="M1831.02 560.381C1831.02 528.396 1820.58 497.131 1801.02 470.537C1781.46 443.943 1753.66 423.216 1721.13 410.976C1688.61 398.736 1652.82 395.534 1618.29 401.773C1583.76 408.013 1552.04 423.415 1527.15 446.031C1502.26 468.647 1485.3 497.462 1478.44 528.832C1471.57 560.201 1475.09 592.717 1488.57 622.266C1502.04 651.816 1524.85 677.072 1554.12 694.841C1583.4 712.611 1617.81 722.095 1653.02 722.095V684.668C1625.96 684.668 1599.51 677.378 1577.01 663.721C1554.51 650.065 1536.98 630.654 1526.63 607.943C1516.27 585.233 1513.56 560.243 1518.84 536.133C1524.12 512.024 1537.15 489.878 1556.28 472.496C1575.41 455.115 1599.79 443.277 1626.33 438.482C1652.86 433.686 1680.37 436.147 1705.37 445.554C1730.37 454.961 1751.73 470.892 1766.76 491.33C1781.8 511.769 1789.82 535.799 1789.82 560.381H1831.02Z" fill="#E1093D"/>
<path d="M1476.02 991.619C1476.02 1023.6 1486.46 1054.87 1506.01 1081.46C1525.57 1108.06 1553.37 1128.78 1585.9 1141.02C1618.42 1153.26 1654.21 1156.47 1688.74 1150.23C1723.27 1143.99 1754.99 1128.59 1779.88 1105.97C1804.77 1083.35 1821.73 1054.54 1828.6 1023.17C1835.46 991.799 1831.94 959.283 1818.47 929.734C1804.99 900.184 1782.18 874.928 1752.91 857.159C1723.64 839.389 1689.22 829.905 1654.02 829.905V867.332C1681.07 867.332 1707.52 874.622 1730.02 888.279C1752.52 901.935 1770.05 921.346 1780.41 944.057C1790.76 966.767 1793.47 991.757 1788.19 1015.87C1782.91 1039.98 1769.88 1062.12 1750.75 1079.5C1731.62 1096.89 1707.24 1108.72 1680.7 1113.52C1654.17 1118.31 1626.66 1115.85 1601.66 1106.45C1576.67 1097.04 1555.3 1081.11 1540.27 1060.67C1525.24 1040.23 1517.21 1016.2 1517.21 991.619H1476.02Z" fill="#E1093D"/>
<path d="M1379.02 991.925C1379.02 1041.39 1395.11 1089.73 1425.28 1130.86C1455.44 1171.98 1498.31 1204.04 1548.47 1222.96C1598.63 1241.89 1653.82 1246.84 1707.07 1237.19C1760.32 1227.55 1809.23 1203.73 1847.62 1168.75C1886.01 1133.78 1912.15 1089.22 1922.74 1040.71C1933.33 992.202 1927.9 941.921 1907.12 896.225C1886.34 850.53 1851.16 811.474 1806.02 783.995C1760.88 756.517 1707.81 741.743 1653.52 741.743V809.754C1693.04 809.754 1731.69 820.527 1764.55 840.534C1797.42 860.54 1823.04 888.977 1838.16 922.247C1853.29 955.517 1857.25 992.127 1849.54 1027.45C1841.82 1062.77 1822.79 1095.21 1794.84 1120.67C1766.89 1146.14 1731.28 1163.48 1692.51 1170.5C1653.74 1177.53 1613.55 1173.92 1577.03 1160.14C1540.51 1146.36 1509.3 1123.02 1487.34 1093.08C1465.38 1063.14 1453.66 1027.94 1453.66 991.925H1379.02Z" fill="#E1093D"/>
<rect width="119" height="932" transform="matrix(-1 0 0 1 895 310)" fill="#E1093D"/>
<rect width="30" height="350" transform="matrix(0 -1 -1 0 1245 814)" fill="#E1093D"/>
<rect width="40" height="350" transform="matrix(0 -1 -1 0 1245 863)" fill="#E1093D"/>
<rect width="30" height="350" transform="matrix(0 -1 -1 0 1245 1153)" fill="#E1093D"/>
<rect width="40" height="350" transform="matrix(0 -1 -1 0 1245 775)" fill="#E1093D"/>
<rect width="80" height="350" transform="matrix(0 -1 -1 0 1245 1242)" fill="#E1093D"/>
<rect x="1245" y="399" width="30" height="350" transform="rotate(90 1245 399)" fill="#E1093D"/>
<rect x="1245" y="310" width="80" height="350" transform="rotate(90 1245 310)" fill="#E1093D"/>
<rect x="1218.33" y="28.2153" width="35.1992" height="194.02" transform="rotate(40.7064 1218.33 28.2153)" fill="#E1093D"/>
<rect x="1185.54" width="38.5235" height="194.02" transform="rotate(40.7064 1185.54 0)" fill="#E1093D"/>
<rect x="68" y="310" width="95" height="932" fill="#E1093D"/>
<rect y="849" width="60" height="589" transform="rotate(-90 0 849)" fill="#E1093D"/>
<rect x="53" y="763" width="60" height="589" transform="rotate(-90 53 763)" fill="#E1093D"/>
<rect y="310" width="53" height="932" fill="#E1093D"/>
<rect width="95" height="932" transform="matrix(-1 0 0 1 574 310)" fill="#E1093D"/>
<rect width="53" height="932" transform="matrix(-1 0 0 1 642 310)" fill="#E1093D"/>
</svg>
