<svg width="221" height="89" viewBox="0 0 221 89" fill="none" xmlns="http://www.w3.org/2000/svg">
<mask id="path-1-outside-1_423_1129" maskUnits="userSpaceOnUse" x="64.3525" y="8" width="155" height="59" fill="black">
<rect fill="white" x="64.3525" y="8" width="155" height="59"/>
<path d="M73.5483 30.8635V41.0753H87.2612V47.5525H73.5483V58.3478H89.0118V65H65.3789V24.2113H89.0118V30.8635H73.5483ZM83.2932 15.8085L69.8721 21.9355V16.1002L83.2932 9.15623V15.8085ZM110.499 65.4085C107.659 65.4085 105.092 64.9222 102.796 63.9496C100.54 62.9771 98.7505 61.5766 97.4279 59.7482C96.1052 57.9198 95.4244 55.7608 95.3855 53.2711H104.138C104.255 54.9438 104.839 56.2665 105.889 57.2391C106.978 58.2116 108.457 58.6979 110.324 58.6979C112.23 58.6979 113.728 58.2505 114.817 57.3558C115.906 56.4221 116.451 55.2162 116.451 53.7379C116.451 52.5319 116.081 51.5399 115.342 50.7619C114.603 49.9838 113.669 49.3809 112.541 48.9529C111.452 48.4861 109.935 47.9804 107.99 47.4358C105.344 46.6577 103.185 45.8991 101.513 45.16C99.8787 44.382 98.4588 43.2344 97.2528 41.7172C96.0858 40.1611 95.5022 38.0993 95.5022 35.5318C95.5022 33.1198 96.1052 31.0191 97.3112 29.2296C98.5171 27.4402 100.209 26.0786 102.388 25.1449C104.566 24.1724 107.056 23.6861 109.857 23.6861C114.058 23.6861 117.462 24.717 120.069 26.7788C122.714 28.8017 124.173 31.6416 124.445 35.2984H115.459C115.381 33.8979 114.778 32.7503 113.65 31.8555C112.561 30.9219 111.102 30.4551 109.274 30.4551C107.679 30.4551 106.395 30.8635 105.422 31.6805C104.489 32.4974 104.022 33.6839 104.022 35.24C104.022 36.3293 104.372 37.2434 105.072 37.9826C105.811 38.6828 106.706 39.2664 107.756 39.7332C108.846 40.1611 110.363 40.6668 112.308 41.2504C114.953 42.0284 117.112 42.8064 118.785 43.5845C120.458 44.3625 121.897 45.5296 123.103 47.0856C124.309 48.6417 124.912 50.6841 124.912 53.2127C124.912 55.3912 124.348 57.4141 123.22 59.2814C122.092 61.1487 120.438 62.6464 118.26 63.7746C116.081 64.8638 113.494 65.4085 110.499 65.4085ZM159.712 24.2696V30.8635H148.859V65H140.689V30.8635H129.836V24.2696H159.712ZM173.842 24.2696V65H165.673V24.2696H173.842ZM206.889 57.2391H190.667L187.983 65H179.405L194.051 24.2113H203.563L218.209 65H209.573L206.889 57.2391ZM204.671 50.7035L198.778 33.6645L192.884 50.7035H204.671Z"/>
</mask>
<path d="M73.5483 30.8635V41.0753H87.2612V47.5525H73.5483V58.3478H89.0118V65H65.3789V24.2113H89.0118V30.8635H73.5483ZM83.2932 15.8085L69.8721 21.9355V16.1002L83.2932 9.15623V15.8085ZM110.499 65.4085C107.659 65.4085 105.092 64.9222 102.796 63.9496C100.54 62.9771 98.7505 61.5766 97.4279 59.7482C96.1052 57.9198 95.4244 55.7608 95.3855 53.2711H104.138C104.255 54.9438 104.839 56.2665 105.889 57.2391C106.978 58.2116 108.457 58.6979 110.324 58.6979C112.23 58.6979 113.728 58.2505 114.817 57.3558C115.906 56.4221 116.451 55.2162 116.451 53.7379C116.451 52.5319 116.081 51.5399 115.342 50.7619C114.603 49.9838 113.669 49.3809 112.541 48.9529C111.452 48.4861 109.935 47.9804 107.99 47.4358C105.344 46.6577 103.185 45.8991 101.513 45.16C99.8787 44.382 98.4588 43.2344 97.2528 41.7172C96.0858 40.1611 95.5022 38.0993 95.5022 35.5318C95.5022 33.1198 96.1052 31.0191 97.3112 29.2296C98.5171 27.4402 100.209 26.0786 102.388 25.1449C104.566 24.1724 107.056 23.6861 109.857 23.6861C114.058 23.6861 117.462 24.717 120.069 26.7788C122.714 28.8017 124.173 31.6416 124.445 35.2984H115.459C115.381 33.8979 114.778 32.7503 113.65 31.8555C112.561 30.9219 111.102 30.4551 109.274 30.4551C107.679 30.4551 106.395 30.8635 105.422 31.6805C104.489 32.4974 104.022 33.6839 104.022 35.24C104.022 36.3293 104.372 37.2434 105.072 37.9826C105.811 38.6828 106.706 39.2664 107.756 39.7332C108.846 40.1611 110.363 40.6668 112.308 41.2504C114.953 42.0284 117.112 42.8064 118.785 43.5845C120.458 44.3625 121.897 45.5296 123.103 47.0856C124.309 48.6417 124.912 50.6841 124.912 53.2127C124.912 55.3912 124.348 57.4141 123.22 59.2814C122.092 61.1487 120.438 62.6464 118.26 63.7746C116.081 64.8638 113.494 65.4085 110.499 65.4085ZM159.712 24.2696V30.8635H148.859V65H140.689V30.8635H129.836V24.2696H159.712ZM173.842 24.2696V65H165.673V24.2696H173.842ZM206.889 57.2391H190.667L187.983 65H179.405L194.051 24.2113H203.563L218.209 65H209.573L206.889 57.2391ZM204.671 50.7035L198.778 33.6645L192.884 50.7035H204.671Z" fill="#E20A3D"/>
<path d="M73.5483 30.8635V30.2557H72.9405V30.8635H73.5483ZM73.5483 41.0753H72.9405V41.6831H73.5483V41.0753ZM87.2612 41.0753H87.8691V40.4674H87.2612V41.0753ZM87.2612 47.5525V48.1603H87.8691V47.5525H87.2612ZM73.5483 47.5525V46.9446H72.9405V47.5525H73.5483ZM73.5483 58.3478H72.9405V58.9556H73.5483V58.3478ZM89.0118 58.3478H89.6197V57.7399H89.0118V58.3478ZM89.0118 65V65.6078H89.6197V65H89.0118ZM65.3789 65H64.771V65.6078H65.3789V65ZM65.3789 24.2113V23.6034H64.771V24.2113H65.3789ZM89.0118 24.2113H89.6197V23.6034H89.0118V24.2113ZM89.0118 30.8635V31.4714H89.6197V30.8635H89.0118ZM83.2932 15.8085L83.5457 16.3614L83.9011 16.1992V15.8085H83.2932ZM69.8721 21.9355H69.2642V22.8812L70.1245 22.4885L69.8721 21.9355ZM69.8721 16.1002L69.5927 15.5604L69.2642 15.7303V16.1002H69.8721ZM83.2932 9.15623H83.9011V8.15736L83.0139 8.61637L83.2932 9.15623ZM72.9405 30.8635V41.0753H74.1561V30.8635H72.9405ZM73.5483 41.6831H87.2612V40.4674H73.5483V41.6831ZM86.6534 41.0753V47.5525H87.8691V41.0753H86.6534ZM87.2612 46.9446H73.5483V48.1603H87.2612V46.9446ZM72.9405 47.5525V58.3478H74.1561V47.5525H72.9405ZM73.5483 58.9556H89.0118V57.7399H73.5483V58.9556ZM88.404 58.3478V65H89.6197V58.3478H88.404ZM89.0118 64.3922H65.3789V65.6078H89.0118V64.3922ZM65.9867 65V24.2113H64.771V65H65.9867ZM65.3789 24.8191H89.0118V23.6034H65.3789V24.8191ZM88.404 24.2113V30.8635H89.6197V24.2113H88.404ZM89.0118 30.2557H73.5483V31.4714H89.0118V30.2557ZM83.0408 15.2555L69.6196 21.3826L70.1245 22.4885L83.5457 16.3614L83.0408 15.2555ZM70.4799 21.9355V16.1002H69.2642V21.9355H70.4799ZM70.1514 16.6401L83.5726 9.6961L83.0139 8.61637L69.5927 15.5604L70.1514 16.6401ZM82.6854 9.15623V15.8085H83.9011V9.15623H82.6854ZM102.796 63.9496L102.556 64.5079L102.559 64.5093L102.796 63.9496ZM97.4279 59.7482L96.9354 60.1045L97.4279 59.7482ZM95.3855 53.2711V52.6632H94.7681L94.7778 53.2806L95.3855 53.2711ZM104.138 53.2711L104.745 53.2288L104.705 52.6632H104.138V53.2711ZM105.889 57.2391L105.476 57.6851L105.484 57.6925L105.889 57.2391ZM114.817 57.3558L115.203 57.8256L115.213 57.8173L114.817 57.3558ZM115.342 50.7619L114.902 51.1805L115.342 50.7619ZM112.541 48.9529L112.302 49.5116L112.314 49.5167L112.326 49.5213L112.541 48.9529ZM107.99 47.4358L107.818 48.019L107.826 48.0211L107.99 47.4358ZM101.513 45.16L101.251 45.7088L101.259 45.7125L101.267 45.716L101.513 45.16ZM97.2528 41.7172L96.7665 42.0819L96.7717 42.0887L96.777 42.0954L97.2528 41.7172ZM97.3112 29.2296L97.8152 29.5693L97.3112 29.2296ZM102.388 25.1449L102.627 25.7037L102.636 25.7L102.388 25.1449ZM120.069 26.7788L119.692 27.2556L119.7 27.2617L120.069 26.7788ZM124.445 35.2984V35.9062H125.1L125.051 35.2532L124.445 35.2984ZM115.459 35.2984L114.852 35.3321L114.884 35.9062H115.459V35.2984ZM113.65 31.8555L113.254 32.317L113.263 32.3246L113.272 32.3318L113.65 31.8555ZM105.422 31.6805L105.031 31.2149L105.022 31.223L105.422 31.6805ZM105.072 37.9826L104.631 38.4006L104.642 38.4126L104.654 38.4239L105.072 37.9826ZM107.756 39.7332L107.509 40.2886L107.522 40.294L107.534 40.2989L107.756 39.7332ZM112.308 41.2504L112.133 41.8326L112.136 41.8335L112.308 41.2504ZM123.103 47.0856L122.623 47.458L123.103 47.0856ZM123.22 59.2814L122.7 58.9671L123.22 59.2814ZM118.26 63.7746L118.532 64.3183L118.539 64.3144L118.26 63.7746ZM110.499 64.8006C107.729 64.8006 105.244 64.3266 103.033 63.39L102.559 64.5093C104.939 65.5178 107.589 66.0163 110.499 66.0163V64.8006ZM103.037 63.3914C100.872 62.4583 99.1732 61.1238 97.9204 59.392L96.9354 60.1045C98.3279 62.0295 100.208 63.4959 102.556 64.5078L103.037 63.3914ZM97.9204 59.392C96.6783 57.675 96.0305 55.6401 95.9933 53.2616L94.7778 53.2806C94.8184 55.8815 95.5321 58.1647 96.9354 60.1045L97.9204 59.392ZM95.3855 53.8789H104.138V52.6632H95.3855V53.8789ZM103.532 53.3134C103.658 55.1122 104.293 56.5897 105.476 57.6851L106.302 56.793C105.384 55.9433 104.853 54.7755 104.745 53.2288L103.532 53.3134ZM105.484 57.6925C106.713 58.7898 108.35 59.3057 110.324 59.3057V58.09C108.563 58.09 107.243 57.6335 106.294 56.7856L105.484 57.6925ZM110.324 59.3057C112.321 59.3057 113.972 58.8366 115.203 57.8255L114.431 56.8861C113.484 57.6644 112.139 58.09 110.324 58.09V59.3057ZM115.213 57.8173C116.441 56.7642 117.059 55.3874 117.059 53.7379H115.843C115.843 55.0449 115.371 56.0801 114.421 56.8943L115.213 57.8173ZM117.059 53.7379C117.059 52.397 116.643 51.2485 115.783 50.3432L114.902 51.1805C115.52 51.8313 115.843 52.6669 115.843 53.7379H117.059ZM115.783 50.3432C114.974 49.4912 113.96 48.8408 112.757 48.3846L112.326 49.5213C113.379 49.9209 114.233 50.4765 114.902 51.1805L115.783 50.3432ZM112.781 48.3942C111.656 47.9121 110.109 47.398 108.154 46.8504L107.826 48.0211C109.76 48.5628 111.248 49.0601 112.302 49.5116L112.781 48.3942ZM108.161 46.8526C105.53 46.0787 103.398 45.3286 101.758 44.604L101.267 45.716C102.973 46.4697 105.159 47.2368 107.818 48.0189L108.161 46.8526ZM101.774 44.6112C100.229 43.8757 98.8812 42.7889 97.7287 41.3389L96.777 42.0954C98.0364 43.6798 99.528 44.8882 101.251 45.7088L101.774 44.6112ZM97.7391 41.3525C96.6729 39.9308 96.1101 38.0097 96.1101 35.5318H94.8944C94.8944 38.1889 95.4987 40.3914 96.7665 42.0819L97.7391 41.3525ZM96.1101 35.5318C96.1101 33.2261 96.6847 31.2469 97.8152 29.5693L96.8071 28.8899C95.5257 30.7914 94.8944 33.0136 94.8944 35.5318H96.1101ZM97.8152 29.5693C98.9495 27.8862 100.545 26.5959 102.627 25.7036L102.148 24.5862C99.8735 25.5612 98.0848 26.9941 96.8071 28.8899L97.8152 29.5693ZM102.636 25.7C104.724 24.7678 107.127 24.294 109.857 24.294V23.0783C106.985 23.0783 104.409 23.577 102.14 24.5899L102.636 25.7ZM109.857 24.294C113.958 24.294 117.218 25.299 119.692 27.2555L120.446 26.3021C117.706 24.1351 114.159 23.0783 109.857 23.0783V24.294ZM119.7 27.2617C122.192 29.1678 123.578 31.8401 123.839 35.3435L125.051 35.2532C124.768 31.443 123.236 28.4356 120.438 26.296L119.7 27.2617ZM124.445 34.6905H115.459V35.9062H124.445V34.6905ZM116.066 35.2646C115.978 33.6855 115.288 32.3787 114.028 31.3793L113.272 32.3318C114.268 33.1218 114.784 34.1103 114.852 35.3321L116.066 35.2646ZM114.046 31.394C112.819 30.3424 111.206 29.8472 109.274 29.8472V31.0629C110.998 31.0629 112.303 31.5014 113.254 32.317L114.046 31.394ZM109.274 29.8472C107.573 29.8472 106.139 30.2845 105.031 31.215L105.813 32.1459C106.651 31.4425 107.784 31.0629 109.274 31.0629V29.8472ZM105.022 31.223C103.924 32.1837 103.414 33.5567 103.414 35.24H104.63C104.63 33.8111 105.053 32.8112 105.822 32.1379L105.022 31.223ZM103.414 35.24C103.414 36.4729 103.816 37.5402 104.631 38.4006L105.513 37.5645C104.928 36.9467 104.63 36.1856 104.63 35.24H103.414ZM104.654 38.4239C105.449 39.1773 106.404 39.7973 107.509 40.2886L108.003 39.1777C107.008 38.7354 106.173 38.1883 105.49 37.5413L104.654 38.4239ZM107.534 40.2989C108.646 40.7358 110.182 41.2472 112.133 41.8326L112.483 40.6681C110.544 40.0865 109.045 39.5863 107.979 39.1674L107.534 40.2989ZM112.136 41.8335C114.765 42.6067 116.893 43.3749 118.529 44.1356L119.041 43.0333C117.331 42.2379 115.141 41.4501 112.479 40.6672L112.136 41.8335ZM118.529 44.1356C120.108 44.87 121.472 45.9733 122.623 47.458L123.584 46.7133C122.322 45.0859 120.808 43.855 119.041 43.0333L118.529 44.1356ZM122.623 47.458C123.725 48.8805 124.304 50.7802 124.304 53.2127H125.52C125.52 50.588 124.893 48.403 123.584 46.7133L122.623 47.458ZM124.304 53.2127C124.304 55.2802 123.771 57.1945 122.7 58.9671L123.74 59.5957C124.926 57.6338 125.52 55.5022 125.52 53.2127H124.304ZM122.7 58.9671C121.636 60.7269 120.072 62.1516 117.98 63.2348L118.539 64.3144C120.805 63.1413 122.547 61.5705 123.74 59.5957L122.7 58.9671ZM117.988 63.2309C115.911 64.2694 113.421 64.8006 110.499 64.8006V66.0163C113.567 66.0163 116.252 65.4583 118.532 64.3183L117.988 63.2309ZM159.712 24.2696H160.32V23.6618H159.712V24.2696ZM159.712 30.8635V31.4714H160.32V30.8635H159.712ZM148.859 30.8635V30.2557H148.251V30.8635H148.859ZM148.859 65V65.6078H149.467V65H148.859ZM140.689 65H140.081V65.6078H140.689V65ZM140.689 30.8635H141.297V30.2557H140.689V30.8635ZM129.836 30.8635H129.228V31.4714H129.836V30.8635ZM129.836 24.2696V23.6618H129.228V24.2696H129.836ZM159.105 24.2696V30.8635H160.32V24.2696H159.105ZM159.712 30.2557H148.859V31.4714H159.712V30.2557ZM148.251 30.8635V65H149.467V30.8635H148.251ZM148.859 64.3922H140.689V65.6078H148.859V64.3922ZM141.297 65V30.8635H140.081V65H141.297ZM140.689 30.2557H129.836V31.4714H140.689V30.2557ZM130.443 30.8635V24.2696H129.228V30.8635H130.443ZM129.836 24.8775H159.712V23.6618H129.836V24.8775ZM173.842 24.2696H174.45V23.6618H173.842V24.2696ZM173.842 65V65.6078H174.45V65H173.842ZM165.673 65H165.065V65.6078H165.673V65ZM165.673 24.2696V23.6618H165.065V24.2696H165.673ZM173.235 24.2696V65H174.45V24.2696H173.235ZM173.842 64.3922H165.673V65.6078H173.842V64.3922ZM166.281 65V24.2696H165.065V65H166.281ZM165.673 24.8775H173.842V23.6618H165.673V24.8775ZM206.889 57.2391L207.463 57.0404L207.322 56.6312H206.889V57.2391ZM190.667 57.2391V56.6312H190.234L190.092 57.0404L190.667 57.2391ZM187.983 65V65.6078H188.415L188.557 65.1987L187.983 65ZM179.405 65L178.833 64.7946L178.541 65.6078H179.405V65ZM194.051 24.2113V23.6034H193.624L193.479 24.0059L194.051 24.2113ZM203.563 24.2113L204.135 24.0059L203.99 23.6034H203.563V24.2113ZM218.209 65V65.6078H219.073L218.781 64.7946L218.209 65ZM209.573 65L208.999 65.1987L209.14 65.6078H209.573V65ZM204.671 50.7035V51.3114H205.525L205.246 50.5048L204.671 50.7035ZM198.778 33.6645L199.352 33.4658L198.778 31.805L198.203 33.4658L198.778 33.6645ZM192.884 50.7035L192.31 50.5048L192.031 51.3114H192.884V50.7035ZM206.889 56.6312H190.667V57.8469H206.889V56.6312ZM190.092 57.0404L187.408 64.8013L188.557 65.1987L191.241 57.4377L190.092 57.0404ZM187.983 64.3922H179.405V65.6078H187.983V64.3922ZM179.977 65.2054L194.623 24.4167L193.479 24.0059L178.833 64.7946L179.977 65.2054ZM194.051 24.8191H203.563V23.6034H194.051V24.8191ZM202.991 24.4167L217.637 65.2054L218.781 64.7946L204.135 24.0059L202.991 24.4167ZM218.209 64.3922H209.573V65.6078H218.209V64.3922ZM210.148 64.8013L207.463 57.0404L206.314 57.4377L208.999 65.1987L210.148 64.8013ZM205.246 50.5048L199.352 33.4658L198.203 33.8632L204.097 50.9022L205.246 50.5048ZM198.203 33.4658L192.31 50.5048L193.459 50.9022L199.352 33.8632L198.203 33.4658ZM192.884 51.3114H204.671V50.0957H192.884V51.3114Z" fill="#FDFDFD" mask="url(#path-1-outside-1_423_1129)"/>
<path d="M15.2691 65.4312V34.4747H5.12745L3 28.0488C9.68659 31.4416 10.6872 30.8496 15.2691 29.2573C9.61235 8.67763 11.3784 2.60772 15.2691 3.51824C19.1598 4.42876 21.3008 3.51824 21.3008 3.51824C18.3684 12.8944 19.1295 18.7054 21.3008 29.2573H39.3958C42.6787 18.8375 42.7999 13.1871 39.3958 3.51824C39.3958 3.51824 41.0477 4.4287 45.4275 3.51824C49.8072 2.60778 49.1719 18.8367 45.4275 29.2573C47.1998 31.7238 49.5 31.088 51.0196 31.088L58.3137 28.0488L55.8824 34.4747H45.4275V65.4312H39.3958V34.4747H21.3008V65.4312H15.2691Z" fill="#E20A3D" stroke="#E20A3D" stroke-width="2.43137"/>
</svg>
