<svg width="217" height="179" viewBox="0 0 217 179" fill="none" xmlns="http://www.w3.org/2000/svg">
<path d="M77.9957 139.534V93.3652H62.9001L59.7334 83.7816C69.6862 88.8416 71.1757 87.9588 77.9957 85.584C69.5757 54.8915 72.2044 45.8388 77.9957 47.1968C83.7869 48.5547 86.9737 47.1968 86.9737 47.1968C82.6089 61.1804 83.7418 69.8469 86.9737 85.584H113.908C118.794 70.0439 118.975 61.6168 113.908 47.1968C113.908 47.1968 116.367 48.5546 122.886 47.1968C129.405 45.8389 128.459 70.0427 122.886 85.584C125.524 89.2624 128.948 88.3143 131.21 88.3143L142.067 83.7816L138.448 93.3652H122.886V139.534H113.908V93.3652H86.9737V139.534H77.9957Z" fill="#E20A3D" stroke="#E20A3D" stroke-width="2"/>
<path d="M200.057 44.5333C207.968 50.4409 182.89 66.2659 182.89 76.6256V138.955C182.89 158.733 167.786 175 149.246 175H56.7048C38.1647 175 23.0608 158.733 23.0608 138.869V75.427C23.0608 65.7522 -1.89031 50.5265 5.30197 44.5333L79.1607 11.0428C89.9492 2.05293 107.93 1.62484 119.118 10.0153L200.057 44.5333ZM200.057 44.5333C223.5 81 194 86 200.057 121.5M200.057 121.5L212.5 135L206.5 138L200.057 121.5Z" stroke="#E20A3D" stroke-width="8" stroke-linecap="round" stroke-linejoin="round"/>
</svg>
